<?xml version="1.0" encoding="utf-8"?>
<!-- Generator: Adobe Illustrator 22.1.0, SVG Export Plug-In . SVG Version: 6.00 Build 0)  -->
<svg version="1.1" id="Layer_1" xmlns="http://www.w3.org/2000/svg" xmlns:xlink="http://www.w3.org/1999/xlink" x="0px" y="0px"
	 viewBox="0 0 414 352" style="enable-background:new 0 0 414 352;" xml:space="preserve">
<style type="text/css">
	.st0{fill:#FFFFFF;}
	.st1{fill:#4E4F4F;}
	.st2{font-family:'Cambria-Bold';}
	.st3{font-size:29px;}
</style>
<rect class="st0" width="414" height="352"/>
<g>
	<path class="st1" d="M285.1,4H136.6c-12.4,0-22.5,10.6-22.5,23.5V102v147.1v74.4c0,12.9,10.1,23.5,22.5,23.5h148.5
		c12.4,0,22.5-10.6,22.5-23.5v-74.4V102V27.5C307.6,14.6,297.5,4,285.1,4z M168.6,319.9h-24.2c-4.5,0-8.1-3.8-8.1-8.4
		c0-4.7,3.6-8.5,8.1-8.5h24.2c4.5,0,8.1,3.8,8.1,8.5C176.7,316.1,173.1,319.9,168.6,319.9z M168.6,287.7h-24.2
		c-4.5,0-8.1-3.8-8.1-8.5s3.6-8.5,8.1-8.5h24.2c4.5,0,8.1,3.8,8.1,8.5S173.1,287.7,168.6,287.7z M168.6,255.5h-24.2
		c-4.5,0-8.1-3.8-8.1-8.4c0-4.7,3.6-8.5,8.1-8.5h24.2c4.5,0,8.1,3.8,8.1,8.5C176.7,251.7,173.1,255.5,168.6,255.5z M168.6,223.2
		h-24.2c-4.5,0-8.1-3.8-8.1-8.5s3.6-8.5,8.1-8.5h24.2c4.5,0,8.1,3.8,8.1,8.5C176.7,219.5,173.1,223.2,168.6,223.2z M223,319.9h-24.2
		c-4.5,0-8.1-3.8-8.1-8.4c0-4.7,3.6-8.5,8.1-8.5H223c4.5,0,8.1,3.8,8.1,8.5C231,316.1,227.4,319.9,223,319.9z M223,287.7h-24.2
		c-4.5,0-8.1-3.8-8.1-8.5s3.6-8.5,8.1-8.5H223c4.5,0,8.1,3.8,8.1,8.5S227.4,287.7,223,287.7z M223,255.5h-24.2
		c-4.5,0-8.1-3.8-8.1-8.4c0-4.7,3.6-8.5,8.1-8.5H223c4.5,0,8.1,3.8,8.1,8.5C231,251.7,227.4,255.5,223,255.5z M223,223.2h-24.2
		c-4.5,0-8.1-3.8-8.1-8.5s3.6-8.5,8.1-8.5H223c4.5,0,8.1,3.8,8.1,8.5C231.1,219.5,227.4,223.2,223,223.2z M277.3,319.9H253
		c-4.5,0-8.1-3.8-8.1-8.4c0-4.7,3.6-8.5,8.1-8.5h24.3c4.5,0,8.1,3.8,8.1,8.5C285.4,316.1,281.8,319.9,277.3,319.9z M277.3,287.7H253
		c-4.5,0-8.1-3.8-8.1-8.5s3.6-8.5,8.1-8.5h24.3c4.5,0,8.1,3.8,8.1,8.5S281.8,287.7,277.3,287.7z M277.3,255.5H253
		c-4.5,0-8.1-3.8-8.1-8.4c0-4.7,3.6-8.5,8.1-8.5h24.3c4.5,0,8.1,3.8,8.1,8.5C285.4,251.7,281.8,255.5,277.3,255.5z M277.3,223.2H253
		c-4.5,0-8.1-3.8-8.1-8.5s3.6-8.5,8.1-8.5h24.3c4.5,0,8.1,3.8,8.1,8.5C285.4,219.5,281.8,223.2,277.3,223.2z M285.9,186.8H135.8
		V31.6h150.1L285.9,186.8L285.9,186.8z"/>
</g>
<text transform="matrix(1 0 0 1 143.0946 124.3689)" class="st2 st3">*123*45#</text>
</svg>
